<svg width="310" height="283" viewBox="0 0 310 283" fill="none" xmlns="http://www.w3.org/2000/svg">
<g opacity="0.4">
<rect x="164.987" y="28" width="145" height="221.186" rx="2.95859" transform="rotate(12 164.987 28)" fill="#2E2E35"/>
<mask id="path-2-inside-1_3303_13269" fill="white">
<path fill-rule="evenodd" clip-rule="evenodd" d="M299.763 67.7024L293.993 66.4761L295.22 60.7067L174.543 35.056L173.317 40.8255L167.547 39.5991L126.056 234.798L131.826 236.024L130.599 241.793L251.276 267.444L252.503 261.675L258.272 262.901L299.763 67.7024Z"/>
</mask>
<path d="M293.993 66.4761L293.392 66.3484L293.265 66.9494L293.866 67.0771L293.993 66.4761ZM299.763 67.7024L300.364 67.8302L300.492 67.2292L299.891 67.1015L299.763 67.7024ZM295.22 60.7067L295.821 60.8344L295.948 60.2335L295.347 60.1057L295.22 60.7067ZM174.543 35.056L174.671 34.4551L174.07 34.3273L173.942 34.9283L174.543 35.056ZM173.317 40.8255L173.189 41.4264L173.79 41.5542L173.918 40.9532L173.317 40.8255ZM167.547 39.5991L167.675 38.9981L167.074 38.8704L166.946 39.4714L167.547 39.5991ZM126.056 234.798L125.455 234.67L125.328 235.271L125.929 235.399L126.056 234.798ZM131.826 236.024L132.427 236.152L132.555 235.551L131.954 235.423L131.826 236.024ZM130.599 241.793L129.999 241.666L129.871 242.267L130.472 242.394L130.599 241.793ZM251.276 267.444L251.149 268.045L251.75 268.173L251.877 267.572L251.276 267.444ZM252.503 261.675L252.63 261.074L252.029 260.946L251.902 261.547L252.503 261.675ZM258.272 262.901L258.144 263.502L258.745 263.63L258.873 263.029L258.272 262.901ZM293.866 67.0771L299.635 68.3034L299.891 67.1015L294.121 65.8751L293.866 67.0771ZM294.619 60.579L293.392 66.3484L294.594 66.6039L295.821 60.8344L294.619 60.579ZM174.415 35.657L295.092 61.3077L295.347 60.1057L174.671 34.4551L174.415 35.657ZM173.918 40.9532L175.144 35.1838L173.942 34.9283L172.716 40.6977L173.918 40.9532ZM167.419 40.2001L173.189 41.4264L173.444 40.2245L167.675 38.9981L167.419 40.2001ZM126.657 234.925L168.148 39.7269L166.946 39.4714L125.455 234.67L126.657 234.925ZM125.929 235.399L131.698 236.625L131.954 235.423L126.184 234.197L125.929 235.399ZM131.225 235.896L129.999 241.666L131.2 241.921L132.427 236.152L131.225 235.896ZM251.404 266.843L130.727 241.192L130.472 242.394L251.149 268.045L251.404 266.843ZM251.902 261.547L250.675 267.316L251.877 267.572L253.104 261.802L251.902 261.547ZM258.4 262.3L252.63 261.074L252.375 262.276L258.144 263.502L258.4 262.3ZM299.162 67.5747L257.671 262.773L258.873 263.029L300.364 67.8302L299.162 67.5747Z" fill="#F77234" mask="url(#path-2-inside-1_3303_13269)"/>
<mask id="path-4-inside-2_3303_13269" fill="white">
<path fill-rule="evenodd" clip-rule="evenodd" d="M177.236 39.6485L296.325 64.9617L290.892 63.8068L289.711 69.3615L295.145 70.5165L255.198 258.452L249.764 257.297L248.583 262.852L134.928 238.693L136.108 233.139L130.675 231.984L170.622 44.0483L176.055 45.2032L177.236 39.6485Z"/>
</mask>
<path d="M177.236 39.6485L177.338 39.1677L176.857 39.0655L176.755 39.5463L177.236 39.6485ZM290.892 63.8068L290.994 63.326L290.513 63.2238L290.411 63.7046L290.892 63.8068ZM289.711 69.3615L289.23 69.2593L289.128 69.7401L289.609 69.8423L289.711 69.3615ZM295.145 70.5165L295.625 70.6187L295.728 70.1379L295.247 70.0357L295.145 70.5165ZM255.198 258.452L255.096 258.933L255.576 259.035L255.679 258.554L255.198 258.452ZM249.764 257.297L249.866 256.816L249.385 256.714L249.283 257.195L249.764 257.297ZM248.583 262.852L248.481 263.332L248.962 263.434L249.064 262.954L248.583 262.852ZM134.928 238.693L134.447 238.591L134.345 239.072L134.826 239.174L134.928 238.693ZM136.108 233.139L136.589 233.241L136.691 232.76L136.211 232.658L136.108 233.139ZM130.675 231.984L130.194 231.881L130.092 232.362L130.572 232.464L130.675 231.984ZM170.622 44.0483L170.724 43.5675L170.243 43.4653L170.141 43.9461L170.622 44.0483ZM176.055 45.2032L175.953 45.684L176.434 45.7862L176.536 45.3054L176.055 45.2032ZM296.428 64.4809L177.338 39.1677L177.134 40.1293L296.223 65.4425L296.428 64.4809ZM290.789 64.2875L296.223 65.4425L296.428 64.4809L290.994 63.326L290.789 64.2875ZM290.192 69.4637L291.372 63.909L290.411 63.7046L289.23 69.2593L290.192 69.4637ZM295.247 70.0357L289.813 68.8807L289.609 69.8423L295.042 70.9972L295.247 70.0357ZM255.679 258.554L295.625 70.6187L294.664 70.4143L254.717 258.35L255.679 258.554ZM249.662 257.778L255.096 258.933L255.3 257.971L249.866 256.816L249.662 257.778ZM249.064 262.954L250.245 257.399L249.283 257.195L248.103 262.749L249.064 262.954ZM134.826 239.174L248.481 263.332L248.686 262.371L135.03 238.212L134.826 239.174ZM135.628 233.036L134.447 238.591L135.409 238.795L136.589 233.241L135.628 233.036ZM130.572 232.464L136.006 233.619L136.211 232.658L130.777 231.503L130.572 232.464ZM170.141 43.9461L130.194 231.881L131.155 232.086L171.102 44.1505L170.141 43.9461ZM176.157 44.7225L170.724 43.5675L170.519 44.5291L175.953 45.684L176.157 44.7225ZM176.755 39.5463L175.575 45.101L176.536 45.3054L177.717 39.7507L176.755 39.5463Z" fill="#F77234" mask="url(#path-4-inside-2_3303_13269)"/>
<rect x="168.773" y="33.8297" width="2.94915" height="2.94915" transform="rotate(12 168.773 33.8297)" fill="#F77234"/>
<rect x="298.104" y="61.3198" width="2.94915" height="2.94915" transform="rotate(12 298.104 61.3198)" fill="#F77234"/>
<rect x="125.443" y="237.682" width="2.94915" height="2.94915" transform="rotate(12 125.443 237.682)" fill="#F77234"/>
<rect x="254.774" y="265.172" width="2.94915" height="2.94915" transform="rotate(12 254.774 265.172)" fill="#F77234"/>
<rect x="260.809" y="86.9595" width="1.9661" height="1.9661" transform="rotate(57 260.809 86.9595)" fill="#F77234"/>
<rect x="266.581" y="83.2117" width="1.9661" height="5.40678" transform="rotate(57 266.581 83.2117)" fill="#F77234"/>
<rect x="265.627" y="94.3795" width="1.9661" height="5.40678" transform="rotate(147 265.627 94.3795)" fill="#F77234"/>
<rect x="257.923" y="88.8334" width="1.9661" height="5.40678" transform="rotate(57 257.923 88.8334)" fill="#F77234"/>
<rect x="260.006" y="85.7228" width="1.9661" height="5.40678" transform="rotate(147 260.006 85.7228)" fill="#F77234"/>
<rect x="240.648" y="213.427" width="1.9661" height="1.9661" transform="rotate(102 240.648 213.427)" fill="#F77234"/>
<rect x="247.379" y="214.858" width="1.9661" height="5.40678" transform="rotate(102 247.379 214.858)" fill="#F77234"/>
<rect x="238.809" y="222.081" width="1.9661" height="5.40678" transform="rotate(-168 238.809 222.081)" fill="#F77234"/>
<rect x="237.283" y="212.711" width="1.9661" height="5.40678" transform="rotate(102 237.283 212.711)" fill="#F77234"/>
<rect x="240.955" y="211.984" width="1.9661" height="5.40678" transform="rotate(-168 240.955 211.984)" fill="#F77234"/>
<rect x="262.313" y="111.5" width="3.44068" height="3.44068" transform="rotate(12 262.313 111.5)" fill="#F77234"/>
<rect x="261.147" y="112.258" width="1.47458" height="2.45763" transform="rotate(102 261.147 112.258)" fill="#F77234"/>
<rect x="264.921" y="111.05" width="1.47458" height="2.45763" transform="rotate(-168 264.921 111.05)" fill="#F77234"/>
<rect x="268.839" y="113.893" width="1.47458" height="2.45763" transform="rotate(102 268.839 113.893)" fill="#F77234"/>
<rect x="263.286" y="118.742" width="1.47458" height="2.45763" transform="rotate(-168 263.286 118.742)" fill="#F77234"/>
<rect x="175.321" y="79.9445" width="2.45763" height="2.45763" transform="rotate(57 175.321 79.9445)" fill="#F77234"/>
<rect x="210.845" y="75.9377" width="2.45763" height="2.45763" transform="rotate(57 210.845 75.9377)" fill="#F77234"/>
<rect x="256.081" y="194.094" width="2.45763" height="2.45763" transform="rotate(57 256.081 194.094)" fill="#F77234"/>
<rect x="173.042" y="186.494" width="5.61011" height="5.61011" transform="rotate(57 173.042 186.494)" fill="#F77234"/>
<rect x="198.477" y="59.7411" width="5.61011" height="5.61011" transform="rotate(57 198.477 59.7411)" fill="#F77234"/>
<rect x="183.989" y="152.64" width="2.45763" height="2.45763" transform="rotate(57 183.989 152.64)" fill="#F77234"/>
<rect x="157.929" y="171.221" width="2.45763" height="2.45763" transform="rotate(57 157.929 171.221)" fill="#F77234"/>
<rect x="271.903" y="129.116" width="2.45763" height="2.45763" transform="rotate(57 271.903 129.116)" fill="#F77234"/>
<rect x="241.992" y="133.814" width="4.91525" height="4.91525" transform="rotate(12 241.992 133.814)" fill="#F77234"/>
<rect x="237.185" y="132.792" width="4.91525" height="4.91525" transform="rotate(12 237.185 132.792)" fill="#F77234"/>
<rect x="232.376" y="131.77" width="4.91525" height="4.91525" transform="rotate(12 232.376 131.77)" fill="#F77234"/>
<rect x="208.333" y="103.042" width="34.4068" height="9.83051" transform="rotate(12 208.333 103.042)" fill="#F77234"/>
<rect x="240.966" y="115.003" width="4.91525" height="4.91525" transform="rotate(12 240.966 115.003)" fill="#F77234"/>
<rect x="244.752" y="120.833" width="4.91525" height="4.91525" transform="rotate(12 244.752 120.833)" fill="#F77234"/>
<rect x="243.73" y="125.641" width="4.91525" height="4.91525" transform="rotate(12 243.73 125.641)" fill="#F77234"/>
<rect x="242.708" y="130.448" width="4.91525" height="4.91525" transform="rotate(12 242.708 130.448)" fill="#F77234"/>
<rect x="241.686" y="135.256" width="4.91525" height="4.91525" transform="rotate(12 241.686 135.256)" fill="#F77234"/>
<rect x="240.665" y="140.064" width="4.91525" height="4.91525" transform="rotate(12 240.665 140.064)" fill="#F77234"/>
<rect x="239.944" y="119.811" width="4.91525" height="4.91525" transform="rotate(12 239.944 119.811)" fill="#F77234"/>
<rect x="238.922" y="124.619" width="4.91525" height="4.91525" transform="rotate(12 238.922 124.619)" fill="#F77234"/>
<rect x="237.9" y="129.427" width="4.91525" height="4.91525" transform="rotate(12 237.9 129.427)" fill="#F77234"/>
<rect x="236.878" y="134.234" width="4.91525" height="4.91525" transform="rotate(12 236.878 134.234)" fill="#F77234"/>
<rect x="235.856" y="139.042" width="4.91525" height="4.91525" transform="rotate(12 235.856 139.042)" fill="#F77234"/>
<rect x="234.834" y="143.85" width="4.91525" height="4.91525" transform="rotate(12 234.834 143.85)" fill="#F77234"/>
<rect x="239.643" y="144.872" width="4.91525" height="4.91525" transform="rotate(12 239.643 144.872)" fill="#F77234"/>
<rect x="230.027" y="142.828" width="4.91525" height="4.91525" transform="rotate(12 230.027 142.828)" fill="#F77234"/>
<rect x="225.219" y="141.806" width="4.91525" height="4.91525" transform="rotate(12 225.219 141.806)" fill="#F77234"/>
<rect x="220.411" y="140.784" width="4.91525" height="4.91525" transform="rotate(12 220.411 140.784)" fill="#F77234"/>
<rect x="219.389" y="145.592" width="4.91525" height="4.91525" transform="rotate(12 219.389 145.592)" fill="#F77234"/>
<rect x="224.197" y="146.614" width="4.91525" height="4.91525" transform="rotate(12 224.197 146.614)" fill="#F77234"/>
<rect x="229.005" y="147.636" width="4.91525" height="4.91525" transform="rotate(12 229.005 147.636)" fill="#F77234"/>
<rect x="233.812" y="148.658" width="4.91525" height="4.91525" transform="rotate(12 233.812 148.658)" fill="#F77234"/>
<rect x="218.367" y="150.4" width="4.91525" height="4.91525" transform="rotate(12 218.367 150.4)" fill="#F77234"/>
<rect x="223.175" y="151.422" width="4.91525" height="4.91525" transform="rotate(12 223.175 151.422)" fill="#F77234"/>
<rect x="217.345" y="155.208" width="4.91525" height="4.91525" transform="rotate(12 217.345 155.208)" fill="#F77234"/>
<rect x="216.323" y="160.016" width="4.91525" height="4.91525" transform="rotate(12 216.323 160.016)" fill="#F77234"/>
<rect x="215.301" y="164.823" width="4.91525" height="4.91525" transform="rotate(12 215.301 164.823)" fill="#F77234"/>
<rect x="214.581" y="144.57" width="4.91525" height="4.91525" transform="rotate(12 214.581 144.57)" fill="#F77234"/>
<rect x="213.559" y="149.378" width="4.91525" height="4.91525" transform="rotate(12 213.559 149.378)" fill="#F77234"/>
<rect x="212.537" y="154.186" width="4.91525" height="4.91525" transform="rotate(12 212.537 154.186)" fill="#F77234"/>
<rect x="211.516" y="158.994" width="4.91525" height="4.91525" transform="rotate(12 211.516 158.994)" fill="#F77234"/>
<rect x="210.494" y="163.802" width="4.91525" height="4.91525" transform="rotate(12 210.494 163.802)" fill="#F77234"/>
<rect x="208.751" y="148.356" width="4.91525" height="4.91525" transform="rotate(12 208.751 148.356)" fill="#F77234"/>
<rect x="207.729" y="153.164" width="4.91525" height="4.91525" transform="rotate(12 207.729 153.164)" fill="#F77234"/>
<rect x="206.708" y="157.972" width="4.91525" height="4.91525" transform="rotate(12 206.708 157.972)" fill="#F77234"/>
<rect x="205.686" y="162.78" width="4.91525" height="4.91525" transform="rotate(12 205.686 162.78)" fill="#F77234"/>
<rect x="212.44" y="178.286" width="4.91525" height="4.91525" transform="rotate(12 212.44 178.286)" fill="#F77234"/>
<rect x="211.418" y="183.093" width="4.91525" height="4.91525" transform="rotate(12 211.418 183.093)" fill="#F77234"/>
<rect x="207.632" y="177.264" width="4.91525" height="4.91525" transform="rotate(12 207.632 177.264)" fill="#F77234"/>
<rect x="206.611" y="182.072" width="4.91525" height="4.91525" transform="rotate(12 206.611 182.072)" fill="#F77234"/>
<rect x="202.825" y="176.242" width="4.91525" height="4.91525" transform="rotate(12 202.825 176.242)" fill="#F77234"/>
<rect x="201.803" y="181.05" width="4.91525" height="4.91525" transform="rotate(12 201.803 181.05)" fill="#F77234"/>
<rect x="226.241" y="136.998" width="4.91525" height="4.91525" transform="rotate(12 226.241 136.998)" fill="#F77234"/>
<rect x="235.136" y="118.789" width="4.91525" height="4.91525" transform="rotate(12 235.136 118.789)" fill="#F77234"/>
<rect x="234.114" y="123.597" width="4.91525" height="4.91525" transform="rotate(12 234.114 123.597)" fill="#F77234"/>
<rect x="233.092" y="128.405" width="4.91525" height="4.91525" transform="rotate(12 233.092 128.405)" fill="#F77234"/>
<rect x="232.071" y="133.213" width="4.91525" height="4.91525" transform="rotate(12 232.071 133.213)" fill="#F77234"/>
<rect x="231.049" y="138.02" width="4.91525" height="4.91525" transform="rotate(12 231.049 138.02)" fill="#F77234"/>
<rect x="230.329" y="117.767" width="4.91525" height="4.91525" transform="rotate(12 230.329 117.767)" fill="#F77234"/>
<rect x="197.696" y="105.806" width="4.91525" height="4.91525" transform="rotate(12 197.696 105.806)" fill="#F77234"/>
<rect x="202.503" y="106.828" width="4.91525" height="4.91525" transform="rotate(12 202.503 106.828)" fill="#F77234"/>
<rect x="203.525" y="102.02" width="4.91525" height="4.91525" transform="rotate(12 203.525 102.02)" fill="#F77234"/>
<rect x="196.674" y="110.613" width="4.91525" height="4.91525" transform="rotate(12 196.674 110.613)" fill="#F77234"/>
<rect x="191.866" y="109.592" width="4.91525" height="4.91525" transform="rotate(12 191.866 109.592)" fill="#F77234"/>
<rect x="195.652" y="115.421" width="4.91525" height="4.91525" transform="rotate(12 195.652 115.421)" fill="#F77234"/>
<rect x="190.844" y="114.399" width="4.91525" height="4.91525" transform="rotate(12 190.844 114.399)" fill="#F77234"/>
<rect x="194.63" y="120.229" width="4.91525" height="4.91525" transform="rotate(12 194.63 120.229)" fill="#F77234"/>
<rect x="193.608" y="125.037" width="4.91525" height="4.91525" transform="rotate(12 193.608 125.037)" fill="#F77234"/>
<rect x="189.822" y="119.207" width="4.91525" height="4.91525" transform="rotate(12 189.822 119.207)" fill="#F77234"/>
<rect x="188.8" y="124.015" width="4.91525" height="4.91525" transform="rotate(12 188.8 124.015)" fill="#F77234"/>
<rect x="201.481" y="111.635" width="4.91525" height="4.91525" transform="rotate(12 201.481 111.635)" fill="#F77234"/>
<rect x="206.29" y="112.657" width="4.91525" height="4.91525" transform="rotate(12 206.29 112.657)" fill="#F77234"/>
<rect x="200.459" y="116.443" width="4.91525" height="4.91525" transform="rotate(12 200.459 116.443)" fill="#F77234"/>
<rect x="199.438" y="121.251" width="4.91525" height="4.91525" transform="rotate(12 199.438 121.251)" fill="#F77234"/>
<rect x="198.416" y="126.059" width="4.91525" height="4.91525" transform="rotate(12 198.416 126.059)" fill="#F77234"/>
<circle cx="174.524" cy="228.389" r="7.24743" transform="rotate(12 174.524 228.389)" fill="#F77234"/>
<path d="M172.992 229.089C173.194 229.777 173.521 230.169 173.975 230.266C174.318 230.339 174.582 230.326 174.769 230.228C174.961 230.125 175.082 229.958 175.132 229.726C175.161 229.589 175.138 229.463 175.063 229.348C174.994 229.233 174.894 229.13 174.766 229.036C174.642 228.944 174.465 228.829 174.235 228.692C173.884 228.474 173.6 228.278 173.384 228.105C173.173 227.928 173.006 227.703 172.882 227.428C172.76 227.149 172.739 226.819 172.82 226.439C172.893 226.096 173.04 225.816 173.263 225.599C173.486 225.381 173.762 225.236 174.092 225.163C174.427 225.091 174.792 225.097 175.188 225.181C175.425 225.231 175.659 225.336 175.89 225.495C176.127 225.651 176.331 225.862 176.5 226.129C176.675 226.393 176.791 226.704 176.847 227.063L175.712 227.228C175.652 226.889 175.553 226.642 175.415 226.486C175.283 226.331 175.135 226.236 174.971 226.202C174.707 226.145 174.491 226.166 174.321 226.262C174.157 226.359 174.055 226.503 174.015 226.693C173.985 226.83 174.008 226.959 174.081 227.079C174.155 227.2 174.256 227.309 174.384 227.408C174.517 227.508 174.702 227.636 174.939 227.791C175.282 228.018 175.557 228.22 175.762 228.396C175.972 228.573 176.137 228.796 176.257 229.064C176.377 229.326 176.401 229.632 176.327 229.98C176.253 230.328 176.097 230.618 175.861 230.849C175.631 231.075 175.333 231.23 174.968 231.312C174.61 231.391 174.206 231.382 173.758 231.287C173.32 231.194 172.942 230.986 172.624 230.665C172.313 230.34 172.072 229.93 171.901 229.436L172.992 229.089Z" fill="#2E2E35"/>
<circle cx="188.702" cy="231.403" r="7.24743" transform="rotate(12 188.702 231.403)" fill="#F77234"/>
<circle cx="202.881" cy="234.416" r="7.24743" transform="rotate(12 202.881 234.416)" fill="#F77234"/>
<circle cx="217.058" cy="237.43" r="7.24743" transform="rotate(12 217.058 237.43)" fill="#F77234"/>
<path d="M188.363 233.291C188.927 233.411 189.411 233.326 189.815 233.037C190.224 232.744 190.495 232.286 190.628 231.663C190.76 231.041 190.698 230.515 190.442 230.086C190.192 229.652 189.785 229.375 189.221 229.255C188.656 229.135 188.169 229.222 187.759 229.515C187.356 229.805 187.088 230.26 186.956 230.883C186.824 231.505 186.882 232.033 187.132 232.467C187.388 232.896 187.798 233.171 188.363 233.291ZM185.753 230.627C185.879 230.036 186.12 229.536 186.477 229.127C186.834 228.718 187.27 228.433 187.784 228.272C188.304 228.107 188.857 228.086 189.443 228.211C190.028 228.335 190.523 228.578 190.925 228.939C191.335 229.297 191.619 229.735 191.779 230.254C191.939 230.773 191.956 231.328 191.83 231.919C191.705 232.51 191.463 233.01 191.106 233.419C190.749 233.829 190.31 234.116 189.79 234.281C189.276 234.442 188.726 234.46 188.141 234.336C187.555 234.211 187.058 233.97 186.648 233.613C186.246 233.252 185.964 232.812 185.804 232.292C185.645 231.773 185.627 231.218 185.753 230.627Z" fill="#2E2E35"/>
<path d="M202.979 234.742C203.253 234.8 203.494 234.755 203.702 234.606C203.916 234.458 204.053 234.24 204.115 233.949C204.177 233.659 204.14 233.403 204.005 233.182C203.876 232.961 203.674 232.822 203.399 232.763L202.236 232.516L201.816 234.494L202.979 234.742ZM201.252 231.232L203.658 231.743C204.064 231.829 204.407 231.993 204.686 232.235C204.967 232.471 205.162 232.76 205.271 233.103C205.385 233.447 205.401 233.815 205.318 234.205C205.235 234.595 205.071 234.925 204.827 235.192C204.588 235.461 204.291 235.649 203.938 235.756C203.585 235.858 203.206 235.865 202.8 235.779L201.597 235.523L201.18 237.486L199.977 237.23L201.252 231.232Z" fill="#2E2E35"/>
<path d="M219.667 236.221L218.1 235.888L217.044 240.858L215.841 240.602L216.897 235.632L215.299 235.293L215.518 234.264L219.886 235.192L219.667 236.221Z" fill="#2E2E35"/>
</g>
<g opacity="0.4">
<rect y="59.1472" width="145" height="221.186" rx="2.95859" transform="rotate(-12 0 59.1472)" fill="#2E2E35"/>
<mask id="path-109-inside-3_3303_13269" fill="white">
<path fill-rule="evenodd" clip-rule="evenodd" d="M139.272 40.5992L133.503 41.8255L132.276 36.0561L11.5995 61.7068L12.8258 67.4762L7.05641 68.7025L48.5471 263.901L54.3165 262.675L55.5429 268.444L176.22 242.793L174.993 237.024L180.763 235.798L139.272 40.5992Z"/>
</mask>
<path d="M133.503 41.8255L132.902 41.9533L133.029 42.5543L133.63 42.4265L133.503 41.8255ZM139.272 40.5992L139.873 40.4715L139.745 39.8705L139.144 39.9982L139.272 40.5992ZM132.276 36.0561L132.877 35.9284L132.75 35.3274L132.149 35.4551L132.276 36.0561ZM11.5995 61.7068L11.4717 61.1058L10.8708 61.2335L10.9985 61.8345L11.5995 61.7068ZM12.8258 67.4762L12.9536 68.0772L13.5545 67.9494L13.4268 67.3485L12.8258 67.4762ZM7.05641 68.7025L6.92866 68.1015L6.32768 68.2293L6.45542 68.8303L7.05641 68.7025ZM48.5471 263.901L47.9461 264.029L48.0739 264.63L48.6749 264.502L48.5471 263.901ZM54.3165 262.675L54.9175 262.547L54.7898 261.946L54.1888 262.074L54.3165 262.675ZM55.5429 268.444L54.9419 268.572L55.0696 269.173L55.6706 269.045L55.5429 268.444ZM176.22 242.793L176.348 243.394L176.948 243.267L176.821 242.666L176.22 242.793ZM174.993 237.024L174.866 236.423L174.265 236.551L174.392 237.152L174.993 237.024ZM180.763 235.798L180.891 236.399L181.492 236.271L181.364 235.67L180.763 235.798ZM133.63 42.4265L139.4 41.2002L139.144 39.9982L133.375 41.2245L133.63 42.4265ZM131.675 36.1839L132.902 41.9533L134.104 41.6978L132.877 35.9284L131.675 36.1839ZM11.7272 62.3078L132.404 36.6571L132.149 35.4551L11.4717 61.1058L11.7272 62.3078ZM13.4268 67.3485L12.2005 61.579L10.9985 61.8345L12.2248 67.6039L13.4268 67.3485ZM7.18415 69.3035L12.9536 68.0772L12.6981 66.8752L6.92866 68.1015L7.18415 69.3035ZM49.1481 263.773L7.65739 68.5748L6.45542 68.8303L47.9461 264.029L49.1481 263.773ZM48.6749 264.502L54.4443 263.276L54.1888 262.074L48.4194 263.3L48.6749 264.502ZM53.7156 262.802L54.9419 268.572L56.1438 268.316L54.9175 262.547L53.7156 262.802ZM176.092 242.192L55.4151 267.843L55.6706 269.045L176.348 243.394L176.092 242.192ZM174.392 237.152L175.619 242.921L176.821 242.666L175.594 236.896L174.392 237.152ZM180.635 235.197L174.866 236.423L175.121 237.625L180.891 236.399L180.635 235.197ZM138.671 40.7269L180.162 235.925L181.364 235.67L139.873 40.4715L138.671 40.7269Z" fill="#FFC234" mask="url(#path-109-inside-3_3303_13269)"/>
<mask id="path-111-inside-4_3303_13269" fill="white">
<path fill-rule="evenodd" clip-rule="evenodd" d="M15.9279 64.8068L135.017 39.4936L129.584 40.6486L130.764 46.2033L136.198 45.0483L176.145 232.984L170.711 234.139L171.892 239.693L58.2361 263.852L57.0554 258.297L51.6217 259.452L11.6748 71.5165L17.1086 70.3616L15.9279 64.8068Z"/>
</mask>
<path d="M15.9279 64.8068L15.8257 64.326L15.3449 64.4282L15.4471 64.909L15.9279 64.8068ZM129.584 40.6486L129.481 40.1678L129.001 40.27L129.103 40.7508L129.584 40.6486ZM130.764 46.2033L130.283 46.3055L130.386 46.7863L130.866 46.6841L130.764 46.2033ZM136.198 45.0483L136.679 44.9461L136.576 44.4654L136.096 44.5676L136.198 45.0483ZM176.145 232.984L176.247 233.464L176.728 233.362L176.626 232.881L176.145 232.984ZM170.711 234.139L170.609 233.658L170.128 233.76L170.23 234.241L170.711 234.139ZM171.892 239.693L171.994 240.174L172.475 240.072L172.373 239.591L171.892 239.693ZM58.2361 263.852L57.7554 263.954L57.8575 264.435L58.3383 264.332L58.2361 263.852ZM57.0554 258.297L57.5362 258.195L57.434 257.714L56.9532 257.816L57.0554 258.297ZM51.6217 259.452L51.1409 259.554L51.2431 260.035L51.7239 259.933L51.6217 259.452ZM11.6748 71.5165L11.5726 71.0357L11.0919 71.1379L11.1941 71.6187L11.6748 71.5165ZM17.1086 70.3616L17.2108 70.8423L17.6915 70.7401L17.5894 70.2594L17.1086 70.3616ZM134.915 39.0128L15.8257 64.326L16.0301 65.2876L135.119 39.9744L134.915 39.0128ZM129.686 41.1293L135.119 39.9744L134.915 39.0128L129.481 40.1678L129.686 41.1293ZM131.245 46.1011L130.064 40.5464L129.103 40.7508L130.283 46.3055L131.245 46.1011ZM136.096 44.5676L130.662 45.7225L130.866 46.6841L136.3 45.5291L136.096 44.5676ZM176.626 232.881L136.679 44.9461L135.717 45.1505L175.664 233.086L176.626 232.881ZM170.813 234.619L176.247 233.464L176.043 232.503L170.609 233.658L170.813 234.619ZM172.373 239.591L171.192 234.036L170.23 234.241L171.411 239.795L172.373 239.591ZM58.3383 264.332L171.994 240.174L171.79 239.213L58.1339 263.371L58.3383 264.332ZM56.5747 258.399L57.7554 263.954L58.7169 263.749L57.5362 258.195L56.5747 258.399ZM51.7239 259.933L57.1576 258.778L56.9532 257.816L51.5195 258.971L51.7239 259.933ZM11.1941 71.6187L51.1409 259.554L52.1025 259.35L12.1556 71.4143L11.1941 71.6187ZM17.0064 69.8808L11.5726 71.0357L11.777 71.9973L17.2108 70.8423L17.0064 69.8808ZM15.4471 64.909L16.6278 70.4637L17.5894 70.2594L16.4087 64.7046L15.4471 64.909Z" fill="#FFC234" mask="url(#path-111-inside-4_3303_13269)"/>
<rect x="5.83008" y="62.9331" width="2.94915" height="2.94915" transform="rotate(-12 5.83008 62.9331)" fill="#FFC234"/>
<rect x="135.161" y="35.443" width="2.94915" height="2.94915" transform="rotate(-12 135.161 35.443)" fill="#FFC234"/>
<rect x="49.1602" y="266.786" width="2.94915" height="2.94915" transform="rotate(-12 49.1602 266.786)" fill="#FFC234"/>
<rect x="178.491" y="239.296" width="2.94915" height="2.94915" transform="rotate(-12 178.491 239.296)" fill="#FFC234"/>
<rect x="136.016" y="118.358" width="1.57288" height="1.57288" transform="rotate(33 136.016 118.358)" fill="#FFC234"/>
<rect x="139.014" y="113.741" width="1.57288" height="4.32542" transform="rotate(33 139.014 113.741)" fill="#FFC234"/>
<rect x="141.951" y="122.213" width="1.57288" height="4.32542" transform="rotate(123 141.951 122.213)" fill="#FFC234"/>
<rect x="134.516" y="120.667" width="1.57288" height="4.32542" transform="rotate(33 134.516 120.667)" fill="#FFC234"/>
<rect x="135.026" y="117.716" width="1.57288" height="4.32542" transform="rotate(123 135.026 117.716)" fill="#FFC234"/>
<rect x="71.8779" y="192.51" width="1.9661" height="1.9661" transform="rotate(33 71.8779 192.51)" fill="#FFC234"/>
<rect x="75.6255" y="186.739" width="1.9661" height="5.40678" transform="rotate(33 75.6255 186.739)" fill="#FFC234"/>
<rect x="79.2979" y="197.329" width="1.9661" height="5.40678" transform="rotate(123 79.2979 197.329)" fill="#FFC234"/>
<rect x="70.0039" y="195.396" width="1.9661" height="5.40678" transform="rotate(33 70.0039 195.396)" fill="#FFC234"/>
<rect x="70.6411" y="191.707" width="1.9661" height="5.40678" transform="rotate(123 70.6411 191.707)" fill="#FFC234"/>
<rect x="39.3066" y="80.9429" width="3.44068" height="3.44068" transform="rotate(-12 39.3066 80.9429)" fill="#FFC234"/>
<rect x="38.5488" y="82.1088" width="1.47458" height="2.45763" transform="rotate(78 38.5488 82.1088)" fill="#FFC234"/>
<rect x="41.5059" y="79.4703" width="1.47458" height="2.45763" transform="rotate(168 41.5059 79.4703)" fill="#FFC234"/>
<rect x="46.2422" y="80.4738" width="1.47458" height="2.45763" transform="rotate(78 46.2422 80.4738)" fill="#FFC234"/>
<rect x="43.1406" y="87.1628" width="1.47458" height="2.45763" transform="rotate(168 43.1406 87.1628)" fill="#FFC234"/>
<rect x="30.5674" y="102.398" width="2.45763" height="2.45763" transform="rotate(33 30.5674 102.398)" fill="#FFC234"/>
<rect x="53.627" y="87.9491" width="2.45763" height="2.45763" transform="rotate(33 53.627 87.9491)" fill="#FFC234"/>
<rect x="124.104" y="88.5463" width="2.45763" height="2.45763" transform="rotate(33 124.104 88.5463)" fill="#FFC234"/>
<rect x="150.775" y="173.831" width="2.45763" height="2.45763" transform="rotate(33 150.775 173.831)" fill="#FFC234"/>
<rect x="135.357" y="134.395" width="2.45763" height="2.45763" transform="rotate(33 135.357 134.395)" fill="#FFC234"/>
<rect x="66.1216" y="223.482" width="5.61011" height="5.61011" transform="rotate(33 66.1216 223.482)" fill="#FFC234"/>
<rect x="126.884" y="74.3524" width="2.8785" height="2.8785" transform="rotate(33 126.884 74.3524)" fill="#FFC234"/>
<rect x="96.769" y="62.6986" width="5.61011" height="5.61011" transform="rotate(33 96.769 62.6986)" fill="#FFC234"/>
<rect x="68.0547" y="165.283" width="2.45763" height="2.45763" transform="rotate(33 68.0547 165.283)" fill="#FFC234"/>
<rect x="113.386" y="124.492" width="4.91525" height="4.91525" transform="rotate(-12 113.386 124.492)" fill="#FFC234"/>
<rect x="108.578" y="125.514" width="4.91525" height="4.91525" transform="rotate(-12 108.578 125.514)" fill="#FFC234"/>
<rect x="103.771" y="126.536" width="4.91525" height="4.91525" transform="rotate(-12 103.771 126.536)" fill="#FFC234"/>
<path fill-rule="evenodd" clip-rule="evenodd" d="M103.776 102.917L70.1208 110.071L65.313 111.093L66.3349 115.901L61.527 116.923L62.549 121.731L57.7411 122.753L58.7631 127.56L59.785 132.368L60.807 137.176L61.8289 141.984L66.6367 140.962L71.4446 139.94L76.2524 138.918L75.2305 134.11L74.2086 129.302L73.1866 124.495L77.9945 123.473L76.9725 118.665L96.2039 114.577L97.2258 119.385L102.034 118.363L103.056 123.171L104.078 127.979L105.099 132.786L100.292 133.808L101.314 138.616L96.5057 139.638L97.5277 144.446L92.7198 145.468L93.7418 150.276L88.9339 151.298L89.9559 156.106L90.9778 160.913L91.9998 165.721L93.0217 170.529L97.8295 169.507L102.637 168.485L107.445 167.463L106.423 162.655L105.401 157.848L104.379 153.04L109.187 152.018L108.165 147.21L112.973 146.188L117.781 145.166L116.759 140.358L121.567 139.336L120.545 134.528L119.523 129.721L118.501 124.913L117.479 120.105L116.457 115.297L115.435 110.489L110.627 111.511L109.605 106.703L104.798 107.725L103.776 102.917ZM109.285 176.117L104.477 177.139L99.6694 178.161L94.8616 179.183L95.8835 183.991L96.9055 188.799L101.713 187.777L106.521 186.755L111.329 185.733L110.307 180.925L109.285 176.117Z" fill="#FFC234"/>
<circle cx="90.218" cy="238.333" r="7.24743" transform="rotate(-12 90.218 238.333)" fill="#FFC234"/>
<path d="M89.1033 239.595C89.5669 240.142 90.0255 240.367 90.4792 240.27C90.8221 240.198 91.0587 240.078 91.1889 239.913C91.3233 239.741 91.3659 239.539 91.3165 239.307C91.2874 239.17 91.2152 239.064 91.1001 238.989C90.9902 238.913 90.8573 238.859 90.7014 238.825C90.5508 238.791 90.3425 238.758 90.0766 238.727C89.6677 238.67 89.3289 238.607 89.0605 238.537C88.7961 238.461 88.5517 238.323 88.3271 238.123C88.1015 237.917 87.9483 237.624 87.8675 237.244C87.7946 236.901 87.8157 236.585 87.9307 236.296C88.0457 236.007 88.239 235.762 88.5105 235.561C88.7873 235.359 89.1236 235.216 89.5192 235.132C89.7566 235.081 90.0132 235.082 90.2888 235.133C90.5686 235.179 90.8402 235.289 91.1036 235.465C91.3712 235.634 91.6036 235.871 91.8009 236.177L90.8308 236.788C90.638 236.504 90.447 236.318 90.2576 236.232C90.0736 236.144 89.8998 236.118 89.7362 236.152C89.4725 236.208 89.2828 236.315 89.1673 236.472C89.057 236.628 89.0221 236.8 89.0624 236.99C89.0916 237.127 89.1643 237.236 89.2806 237.316C89.3968 237.396 89.5335 237.455 89.6905 237.494C89.8528 237.531 90.0738 237.572 90.3537 237.617C90.7596 237.686 91.0921 237.758 91.3512 237.835C91.6155 237.912 91.8567 238.048 92.0749 238.244C92.2919 238.435 92.4374 238.705 92.5114 239.053C92.5854 239.401 92.5614 239.729 92.4392 240.036C92.3212 240.337 92.1122 240.599 91.8124 240.822C91.5167 241.04 91.1446 241.196 90.6962 241.291C90.2583 241.384 89.829 241.349 89.4081 241.185C88.9914 241.014 88.6046 240.738 88.2477 240.356L89.1033 239.595Z" fill="#2E2E35"/>
<circle cx="104.396" cy="235.319" r="7.24743" transform="rotate(-12 104.396 235.319)" fill="#FFC234"/>
<circle cx="118.574" cy="232.305" r="7.24743" transform="rotate(-12 118.574 232.305)" fill="#FFC234"/>
<circle cx="132.752" cy="229.292" r="7.24743" transform="rotate(-12 132.752 229.292)" fill="#FFC234"/>
<path d="M104.854 237.182C105.419 237.062 105.826 236.788 106.077 236.36C106.332 235.925 106.394 235.396 106.261 234.774C106.129 234.151 105.858 233.696 105.45 233.408C105.045 233.113 104.561 233.026 103.996 233.146C103.432 233.266 103.022 233.543 102.767 233.978C102.516 234.406 102.457 234.932 102.589 235.554C102.722 236.177 102.99 236.635 103.395 236.93C103.803 237.218 104.29 237.302 104.854 237.182ZM101.387 235.81C101.261 235.219 101.278 234.664 101.438 234.145C101.598 233.626 101.88 233.188 102.284 232.832C102.692 232.47 103.189 232.226 103.774 232.102C104.36 231.977 104.91 231.998 105.425 232.164C105.945 232.324 106.383 232.609 106.74 233.018C107.097 233.427 107.339 233.927 107.464 234.518C107.59 235.109 107.573 235.664 107.413 236.183C107.253 236.702 106.969 237.143 106.561 237.506C106.157 237.862 105.662 238.102 105.076 238.227C104.491 238.351 103.938 238.333 103.419 238.174C102.904 238.007 102.468 237.72 102.111 237.31C101.754 236.901 101.512 236.401 101.387 235.81Z" fill="#2E2E35"/>
<path d="M118.797 232.562C119.071 232.504 119.273 232.365 119.402 232.144C119.537 231.923 119.574 231.667 119.512 231.376C119.45 231.086 119.313 230.867 119.1 230.72C118.892 230.571 118.65 230.526 118.376 230.584L117.213 230.831L117.633 232.81L118.797 232.562ZM115.791 230.058L118.197 229.547C118.603 229.461 118.983 229.471 119.337 229.578C119.689 229.679 119.985 229.864 120.224 230.133C120.468 230.401 120.632 230.73 120.715 231.121C120.798 231.511 120.782 231.878 120.668 232.223C120.559 232.566 120.365 232.858 120.085 233.099C119.804 233.335 119.461 233.496 119.055 233.583L117.852 233.838L118.269 235.801L117.066 236.057L115.791 230.058Z" fill="#2E2E35"/>
<path d="M134.643 227.126L133.076 227.459L134.133 232.429L132.93 232.685L131.874 227.715L130.275 228.055L130.056 227.026L134.425 226.098L134.643 227.126Z" fill="#2E2E35"/>
</g>
<g filter="url(#filter0_d_3303_13269)">
<rect x="79" y="19" width="154" height="234.915" rx="3.14223" fill="#202025"/>
<mask id="path-154-inside-5_3303_13269" fill="white">
<path fill-rule="evenodd" clip-rule="evenodd" d="M84.2192 24.2205H227.779V242.431H221.514V248.695L227.779 248.695H84.2192L90.4836 248.695V242.431H84.2192V30.4849H90.4833V24.2205H84.2192V24.2205ZM227.778 24.2205V30.4849H221.514V24.2205H227.778Z"/>
</mask>
<path d="M227.779 24.2205H228.431V23.5679H227.779V24.2205ZM84.2192 24.2205V23.5679H83.5667V24.2205H84.2192ZM227.779 242.431V243.083H228.431V242.431H227.779ZM221.514 242.431V241.778H220.862V242.431H221.514ZM221.514 248.695H220.862V249.348H221.514V248.695ZM90.4836 248.695L90.4836 249.348H91.1362V248.695H90.4836ZM90.4836 242.431H91.1362V241.778H90.4836V242.431ZM84.2192 242.431H83.5667V243.083H84.2192V242.431ZM84.2192 30.4849V29.8324H83.5667V30.4849H84.2192ZM90.4833 30.4849V31.1374H91.1358V30.4849H90.4833ZM90.4833 24.2205H91.1358V23.5679H90.4833V24.2205ZM84.2192 24.2205H83.5667V24.873H84.2192V24.2205ZM227.778 30.4849V31.1374H228.431V30.4849H227.778ZM227.778 24.2205H228.431V23.5679H227.778V24.2205ZM221.514 30.4849H220.861V31.1374H221.514V30.4849ZM221.514 24.2205V23.5679H220.861V24.2205H221.514ZM227.779 23.5679H84.2192V24.873H227.779V23.5679ZM228.431 242.431V24.2205H227.126V242.431H228.431ZM221.514 243.083H227.779V241.778H221.514V243.083ZM222.167 248.695V242.431H220.862V248.695H222.167ZM227.779 248.042L221.514 248.042V249.348L227.779 249.348V248.042ZM84.2192 249.348H227.779V248.042H84.2192V249.348ZM90.4836 248.042L84.2192 248.042L84.2192 249.348L90.4836 249.348L90.4836 248.042ZM89.8311 242.431V248.695H91.1362V242.431H89.8311ZM84.2192 243.083H90.4836V241.778H84.2192V243.083ZM83.5667 30.4849V242.431H84.8718V30.4849H83.5667ZM90.4833 29.8324H84.2192V31.1374H90.4833V29.8324ZM89.8307 24.2205V30.4849H91.1358V24.2205H89.8307ZM84.2192 24.873H90.4833V23.5679H84.2192V24.873ZM83.5667 24.2205V24.2205H84.8718V24.2205H83.5667ZM228.431 30.4849V24.2205H227.126V30.4849H228.431ZM221.514 31.1374H227.778V29.8324H221.514V31.1374ZM220.861 24.2205V30.4849H222.166V24.2205H220.861ZM227.778 23.5679H221.514V24.873H227.778V23.5679Z" fill="#16BF81" mask="url(#path-154-inside-5_3303_13269)"/>
<mask id="path-156-inside-6_3303_13269" fill="white">
<path fill-rule="evenodd" clip-rule="evenodd" d="M94.2959 28.3966H223.603L217.703 28.3966V34.4279H223.603V238.487H217.703V244.519H94.2959V238.487H88.396L88.396 244.519V34.4279H94.2959V28.3966Z"/>
</mask>
<path d="M94.2959 28.3966V27.8746H93.7739V28.3966H94.2959ZM217.703 28.3966V27.8746L217.181 27.8746V28.3966H217.703ZM217.703 34.4279H217.181V34.95H217.703V34.4279ZM223.603 34.4279H224.125V33.9059H223.603V34.4279ZM223.603 238.487V239.009H224.125V238.487H223.603ZM217.703 238.487V237.965H217.181V238.487H217.703ZM217.703 244.519V245.041H218.225V244.519H217.703ZM94.2959 244.519H93.7739V245.041H94.2959V244.519ZM94.2959 238.487H94.818V237.965H94.2959V238.487ZM88.396 238.487V237.965H87.874L87.874 238.487H88.396ZM88.396 34.4279V33.9059H87.874V34.4279H88.396ZM94.2959 34.4279V34.95H94.818V34.4279H94.2959ZM223.603 27.8746H94.2959V28.9186H223.603V27.8746ZM217.703 28.9186L223.603 28.9186V27.8746L217.703 27.8746V28.9186ZM218.225 34.4279V28.3966H217.181V34.4279H218.225ZM223.603 33.9059H217.703V34.95H223.603V33.9059ZM224.125 238.487V34.4279H223.081V238.487H224.125ZM217.703 239.009H223.603V237.965H217.703V239.009ZM218.225 244.519V238.487H217.181V244.519H218.225ZM94.2959 245.041H217.703V243.997H94.2959V245.041ZM93.7739 238.487V244.519H94.818V238.487H93.7739ZM88.396 239.009H94.2959V237.965H88.396V239.009ZM88.918 244.519L88.918 238.487H87.874L87.874 244.519H88.918ZM87.874 34.4279V244.519H88.918V34.4279H87.874ZM94.2959 33.9059H88.396V34.95H94.2959V33.9059ZM93.7739 28.3966V34.4279H94.818V28.3966H93.7739Z" fill="#16BF81" mask="url(#path-156-inside-6_3303_13269)"/>
<rect x="84.2197" y="24.2205" width="3.1322" height="3.1322" fill="#16BF81"/>
<rect x="224.647" y="24.2205" width="3.1322" height="3.1322" fill="#16BF81"/>
<rect x="84.2197" y="245.563" width="3.1322" height="3.1322" fill="#16BF81"/>
<rect x="224.647" y="245.563" width="3.1322" height="3.1322" fill="#16BF81"/>
<rect x="108.039" y="47.6069" width="2.08814" height="2.08814" transform="rotate(45 108.039 47.6069)" fill="#16BF81"/>
<rect x="113.207" y="42.4391" width="2.08814" height="5.74237" transform="rotate(45 113.207 42.4391)" fill="#16BF81"/>
<rect x="114.683" y="54.2513" width="2.08814" height="5.74237" transform="rotate(135 114.683 54.2513)" fill="#16BF81"/>
<rect x="105.455" y="50.1909" width="2.08814" height="5.74237" transform="rotate(45 105.455 50.1909)" fill="#16BF81"/>
<rect x="106.931" y="46.4996" width="2.08814" height="5.74237" transform="rotate(135 106.931 46.4996)" fill="#16BF81"/>
<rect x="202.005" y="189.078" width="2.08814" height="2.08814" transform="rotate(45 202.005 189.078)" fill="#16BF81"/>
<rect x="207.173" y="183.91" width="2.08814" height="5.74237" transform="rotate(45 207.173 183.91)" fill="#16BF81"/>
<rect x="208.649" y="195.723" width="2.08814" height="5.74237" transform="rotate(135 208.649 195.723)" fill="#16BF81"/>
<rect x="199.421" y="191.662" width="2.08814" height="5.74237" transform="rotate(45 199.421 191.662)" fill="#16BF81"/>
<rect x="200.898" y="187.971" width="2.08814" height="5.74237" transform="rotate(135 200.898 187.971)" fill="#16BF81"/>
<rect x="125.982" y="65.4611" width="3.65424" height="3.65424" fill="#16BF81"/>
<rect x="124.938" y="66.5051" width="1.5661" height="2.61017" transform="rotate(90 124.938 66.5051)" fill="#16BF81"/>
<rect x="128.593" y="64.417" width="1.5661" height="2.61017" transform="rotate(-180 128.593 64.417)" fill="#16BF81"/>
<rect x="133.291" y="66.5051" width="1.5661" height="2.61017" transform="rotate(90 133.291 66.5051)" fill="#16BF81"/>
<rect x="128.593" y="72.7695" width="1.5661" height="2.61017" transform="rotate(-180 128.593 72.7695)" fill="#16BF81"/>
<rect x="106.947" y="76.9458" width="2.61017" height="2.61017" transform="rotate(45 106.947 76.9458)" fill="#16BF81"/>
<rect x="206.655" y="57.1085" width="2.61017" height="2.61017" transform="rotate(45 206.655 57.1085)" fill="#16BF81"/>
<rect x="210.31" y="171.434" width="2.61017" height="2.61017" transform="rotate(45 210.31 171.434)" fill="#16BF81"/>
<rect x="111.402" y="204.322" width="5.95833" height="5.95833" transform="rotate(45 111.402 204.322)" fill="#16BF81"/>
<rect x="198.06" y="42.4916" width="5.95833" height="5.95833" transform="rotate(45 198.06 42.4916)" fill="#16BF81"/>
<rect x="126.262" y="144.288" width="2.61017" height="2.61017" transform="rotate(45 126.262 144.288)" fill="#16BF81"/>
<rect x="177.142" y="111.922" width="5.22034" height="5.22034" fill="#16BF81"/>
<rect x="171.921" y="111.922" width="5.22034" height="5.22034" fill="#16BF81"/>
<path fill-rule="evenodd" clip-rule="evenodd" d="M176.141 87.3865H139.599H134.379V92.6068H129.158V97.8272L123.938 97.8272V103.047V108.268V113.488V118.709H129.158H134.379H139.599V113.488V108.268V103.047H144.819V97.8272H165.701V103.047H170.921V108.268V113.488L170.921 118.709H165.701V123.929H160.48V129.149H155.26V134.37L150.04 134.37V139.59V144.81V150.031V155.251H155.26H160.48H165.701V150.031V144.81V139.59H170.921V134.37H176.141H181.362V129.149H186.582V123.929V118.709V113.488V108.268V103.047V97.8272L181.362 97.8272V92.6068H176.141L176.141 87.3865ZM165.7 164.648H160.48H155.26H150.039V169.868V175.088H155.26H160.48H165.7V169.868V164.648Z" fill="#16BF81"/>
<circle cx="133.159" cy="225.07" r="7.69727" fill="#16BF81"/>
<path d="M131.722 226.639C132.083 227.309 132.51 227.645 133.002 227.645C133.375 227.645 133.647 227.573 133.819 227.43C133.996 227.281 134.085 227.08 134.085 226.828C134.085 226.679 134.033 226.553 133.93 226.45C133.833 226.347 133.707 226.261 133.552 226.192C133.403 226.124 133.194 226.044 132.925 225.952C132.512 225.803 132.175 225.663 131.911 225.531C131.653 225.393 131.43 225.196 131.241 224.938C131.052 224.675 130.957 224.337 130.957 223.924C130.957 223.552 131.049 223.228 131.232 222.953C131.416 222.678 131.67 222.466 131.997 222.317C132.329 222.168 132.71 222.094 133.14 222.094C133.397 222.094 133.664 222.151 133.939 222.266C134.219 222.375 134.477 222.549 134.712 222.79C134.953 223.025 135.142 223.323 135.279 223.684L134.136 224.105C133.999 223.767 133.841 223.532 133.664 223.4C133.492 223.268 133.317 223.202 133.14 223.202C132.853 223.202 132.633 223.271 132.478 223.409C132.329 223.546 132.255 223.718 132.255 223.924C132.255 224.073 132.306 224.202 132.409 224.311C132.512 224.42 132.641 224.511 132.796 224.586C132.956 224.66 133.177 224.752 133.458 224.861C133.864 225.021 134.194 225.17 134.446 225.307C134.704 225.445 134.924 225.64 135.107 225.892C135.291 226.138 135.382 226.45 135.382 226.828C135.382 227.206 135.285 227.541 135.09 227.834C134.901 228.12 134.626 228.346 134.265 228.512C133.91 228.673 133.489 228.753 133.002 228.753C132.527 228.753 132.089 228.621 131.688 228.358C131.292 228.089 130.952 227.716 130.665 227.241L131.722 226.639Z" fill="#202025"/>
<circle cx="148.553" cy="225.07" r="7.69727" fill="#16BF81"/>
<circle cx="163.947" cy="225.07" r="7.69727" fill="#16BF81"/>
<circle cx="179.342" cy="225.07" r="7.69727" fill="#16BF81"/>
<path d="M148.618 227.61C149.231 227.61 149.715 227.415 150.07 227.026C150.431 226.631 150.611 226.095 150.611 225.419C150.611 224.743 150.431 224.211 150.07 223.821C149.715 223.426 149.231 223.228 148.618 223.228C148.005 223.228 147.518 223.426 147.157 223.821C146.802 224.211 146.624 224.743 146.624 225.419C146.624 226.095 146.802 226.631 147.157 227.026C147.518 227.415 148.005 227.61 148.618 227.61ZM145.318 225.419C145.318 224.778 145.459 224.205 145.739 223.701C146.02 223.197 146.409 222.804 146.908 222.524C147.412 222.237 147.982 222.094 148.618 222.094C149.253 222.094 149.821 222.237 150.319 222.524C150.823 222.804 151.215 223.197 151.496 223.701C151.777 224.205 151.917 224.778 151.917 225.419C151.917 226.061 151.777 226.634 151.496 227.138C151.215 227.642 150.823 228.037 150.319 228.323C149.821 228.604 149.253 228.744 148.618 228.744C147.982 228.744 147.412 228.604 146.908 228.323C146.409 228.037 146.02 227.642 145.739 227.138C145.459 226.634 145.318 226.061 145.318 225.419Z" fill="#202025"/>
<path d="M164.122 225.89C164.42 225.89 164.66 225.79 164.844 225.589C165.033 225.389 165.127 225.131 165.127 224.816C165.127 224.501 165.033 224.243 164.844 224.043C164.66 223.842 164.42 223.742 164.122 223.742H162.859V225.89H164.122ZM161.553 222.625H164.165C164.606 222.625 164.998 222.719 165.342 222.908C165.686 223.092 165.952 223.349 166.141 223.682C166.336 224.014 166.433 224.392 166.433 224.816C166.433 225.24 166.336 225.618 166.141 225.95C165.952 226.282 165.686 226.543 165.342 226.732C164.998 226.915 164.606 227.007 164.165 227.007H162.859V229.138H161.553V222.625Z" fill="#202025"/>
<path d="M181.785 223.742H180.083V229.138H178.777V223.742H177.042V222.625H181.785V223.742Z" fill="#202025"/>
</g>
<defs>
<filter id="filter0_d_3303_13269" x="60" y="0" width="192" height="272.915" filterUnits="userSpaceOnUse" color-interpolation-filters="sRGB">
<feFlood flood-opacity="0" result="BackgroundImageFix"/>
<feColorMatrix in="SourceAlpha" type="matrix" values="0 0 0 0 0 0 0 0 0 0 0 0 0 0 0 0 0 0 127 0" result="hardAlpha"/>
<feOffset/>
<feGaussianBlur stdDeviation="9.5"/>
<feComposite in2="hardAlpha" operator="out"/>
<feColorMatrix type="matrix" values="0 0 0 0 0 0 0 0 0 0 0 0 0 0 0 0 0 0 0.25 0"/>
<feBlend mode="normal" in2="BackgroundImageFix" result="effect1_dropShadow_3303_13269"/>
<feBlend mode="normal" in="SourceGraphic" in2="effect1_dropShadow_3303_13269" result="shape"/>
</filter>
</defs>
</svg>
