<svg width="40" height="40" viewBox="0 0 40 40" fill="none" xmlns="http://www.w3.org/2000/svg">
<path d="M25.4792 18.6406H32.4684C35.3387 18.6406 37.6656 20.9675 37.6656 23.8379C37.6656 26.7082 35.3387 29.0351 32.4684 29.0351H25.4792" stroke="#808087" stroke-width="2.509"/>
<path d="M4.33334 16.4895H32.2905V21.1493C32.2905 28.8694 26.0321 35.1279 18.3119 35.1279V35.1279C10.5918 35.1279 4.33334 28.8694 4.33334 21.1493V16.4895Z" fill="#808087"/>
<path d="M18.3119 12.6306C22.1073 12.6306 25.5098 13.1642 27.9349 14.0037C29.151 14.4246 30.0777 14.9082 30.6849 15.405C31.298 15.9068 31.4906 16.3388 31.4906 16.6697C31.4905 17.0005 31.298 17.4326 30.6849 17.9343C30.0777 18.4311 29.1508 18.9138 27.9349 19.3347C25.5098 20.1742 22.1073 20.7087 18.3119 20.7087C14.5165 20.7087 11.1139 20.1742 8.68881 19.3347C7.47294 18.9138 6.54596 18.4311 5.93881 17.9343C5.32571 17.4326 5.13317 17.0005 5.13315 16.6697C5.13315 16.3388 5.32568 15.9068 5.93881 15.405C6.546 14.9082 7.47277 14.4246 8.68881 14.0037C11.1139 13.1642 14.5165 12.6306 18.3119 12.6306Z" fill="#202025" stroke="#808087" stroke-width="1.6"/>
<path d="M17.7803 6.58452C17.7803 4.38325 15.9399 3.32847 15.0197 2.86987C16.9086 2.86988 19.8144 3.97051 20.5409 5.89666C21.468 8.35494 19.9653 9.88114 18.0709 11.675C16.4727 13.1883 19.2332 15.6189 20.105 16.4902C17.4897 16.4902 14.7292 14.1514 14.7292 11.8125C14.7292 9.33611 17.7803 9.33611 17.7803 6.58452Z" fill="#808087"/>
</svg>
