<svg width="22" height="22" viewBox="0 0 22 22" fill="none" xmlns="http://www.w3.org/2000/svg">
<path d="M18.9919 5.8064C18.7257 4.60605 17.5277 3.80581 16.3297 4.07255L14.0668 4.60605L11.1384 5.27291C10.6725 5.40629 10.14 5.07285 10.0735 4.60605L9.47449 2.00527C9.14171 0.604856 7.81061 -0.262069 6.41295 0.071364C5.01529 0.404797 4.15007 1.73853 4.48284 3.13894L5.74739 8.8073L6.01361 10.0743L6.74572 13.2086L7.74405 17.6099C8.01027 18.8103 9.20827 19.6105 10.4063 19.3438L16.9952 17.8767L19.2581 17.3432C20.4561 17.0764 21.2548 15.8761 20.9885 14.6757C20.7223 13.4754 19.5243 12.6751 18.3263 12.9419C19.5243 12.6751 20.323 11.4748 20.0568 10.2744C19.7906 9.07404 18.5926 8.27381 17.3946 8.54055C18.5926 8.27381 19.3912 7.07345 19.125 5.87309L18.9919 5.8064Z" fill="white"/>
<path d="M6.35324 7.93562C6.00181 6.35382 4.43714 5.35698 2.85846 5.7091C1.27977 6.06123 0.284891 7.62898 0.636323 9.21078L2.67545 18.3889C3.02688 19.9707 4.59155 20.9676 6.17023 20.6154C7.74892 20.2633 8.7438 18.6956 8.39237 17.1138L6.35324 7.93562Z" fill="white"/>
</svg>
