<svg width="269" height="208" viewBox="0 0 269 208" fill="none" xmlns="http://www.w3.org/2000/svg">
<g clip-path="url(#clip0_3303_13217)">
<path d="M201.701 201.668V187.432H196.838V182.686H29.1919V177.391H23.9008V172.088H18.6173V166.785H13.3262V29.2329H18.6173V23.93H23.9008V18.6346H29.1919V13.3317H240.249V18.6346H245.54V23.93H250.824V29.2329H256.115V166.785H250.824V172.088H245.54V177.391H240.249V182.686H225.293V187.432H220.422V192.177H215.56V196.923H210.689V201.668H201.701Z" fill="white"/>
<path d="M239.873 13.7083V19.0113H245.164V24.3142H250.455V29.6171H255.746V166.424H250.455V171.727H245.164V177.029H239.873V182.332H224.917V187.078H220.046V191.823H215.176V196.569H210.306V201.314H202.076V187.078H197.206V182.332H29.5675V177.029H24.2764V171.727H18.9853V166.424H13.7018V29.6096H18.9928V24.3067H24.2839V19.0037H29.575V13.7083H239.888M240.639 12.9551H28.8159V18.258H23.5248V23.5609H18.2338V28.8639H12.9502V167.177H18.2413V172.48H23.5324V177.783H28.8234V183.086H196.469V187.831H201.34V202.068H211.073V197.322H215.943V192.577H220.813V187.831H225.683V183.086H240.639V177.783H245.931V172.48H251.222V167.177H256.513V28.8563H251.222V23.5534H245.931V18.2505H240.639V12.9551Z" fill="black"/>
<path d="M240.264 18.9735V13.3467L29.3044 13.3467V18.9735L240.264 18.9735Z" fill="#C8E1FF"/>
<path d="M197.095 182.332V177.436H29.3057V183.063H197.095V187.055H202.07V182.332H197.095Z" fill="#C8E1FF"/>
<path d="M256.452 29.0671H251.214V23.9149H245.72V18.2504H239.887V24.3141H245.164V29.6245H250.455V166.416H245.164V171.719H239.887V177.029H224.939V182.31H220.084V187.063H215.146V191.868H210.298V196.546H207.247H205.473H201.918V202.045H205.473H207.247H210.802V197.367H215.627V192.561H220.482V187.808H225.42V182.536H240.511V177.436H245.93V172.48H251.003V167.116H256.452V29.0671Z" fill="#C8E1FF"/>
<path d="M18.4005 172.48H24.2402V166.416H18.4005V172.48Z" fill="#C8E1FF"/>
<path d="M23.4655 177.436H29.5156V171.719H23.4655V177.436Z" fill="#C8E1FF"/>
<path d="M29.5243 18.2505H23.6846V24.3142H29.5243V18.2505Z" fill="#C8E1FF"/>
<path d="M24.2396 23.9149H18.1895V29.6321H24.2396V23.9149Z" fill="#C8E1FF"/>
<path d="M12.9526 167.117H18.9502L18.9502 29.0748H12.9526L12.9526 167.117Z" fill="#C8E1FF"/>
<path d="M239.873 13.7083V19.0113H245.164V24.3142H250.455V29.6171H255.746V166.424H250.455V171.727H245.164V177.029H239.873V182.332H224.917V187.078H220.046V191.823H215.176V196.569H210.306V201.314H202.076V187.078H197.206V182.332H29.5675V177.029H24.2764V171.727H18.9853V166.424H13.7018V29.6096H18.9928V24.3067H24.2839V19.0037H29.575V13.7083H239.888M240.639 12.9551H28.8159V18.258H23.5248V23.5609H18.2338V28.8639H12.9502V167.177H18.2413V172.48H23.5324V177.783H28.8234V183.086H196.469V187.831H201.34V202.068H211.073V197.322H215.943V192.577H220.813V187.831H225.683V183.086H240.639V177.783H245.931V172.48H251.222V167.177H256.513V28.8563H251.222V23.5534H245.931V18.2505H240.639V12.9551Z" fill="black"/>
<path fill-rule="evenodd" clip-rule="evenodd" d="M218.448 31.7941H232.563V93.8775H218.448V31.7941ZM205.107 78.127V80.2211H179.501V78.127H177.171V75.7919H174.842V73.4568H172.512V71.1293H170.212V43.0328H172.519V40.6977H174.849V38.3701H177.171V36.035H179.494V33.7H205.1V36.035H207.43V38.3701H209.76V40.6977H212.09V43.0253H214.232V71.1217H212.082V73.4568H209.752V75.7919H207.422V78.127H205.107ZM83.683 79.2869V77.6524H86.2759V75.3851H88.5983V73.05H90.9281V70.7149H93.258V68.3873H95.5804V42.867H93.258V40.5394H90.9281V38.2043H88.5983V35.8692H86.2684V33.5417H83.683V31.8996H50.4108V33.5417H47.8103V35.8692H45.4955V38.2043H43.1656V40.5319H40.8357V42.867H38.5059V68.3873H40.8357V70.7149H43.1581V73.05H45.488V75.3775H47.8179V77.6524H50.4108V79.2869H59.0313V82.187H38.5059V93.8022H95.5804V82.187H75.0624V79.2869H83.683ZM213.152 83.8499V93.7499H171.352V83.8499H213.152ZM162.832 41.9179H118.609V31.8996H103.247V41.9179V43.5374V53.5331H162.832V41.9179ZM103.247 65.7359H149.875H162.832V76.5451V79.8293V83.1135H116.204V85.1398H162.832V93.87H116.204H103.247V77.9612V76.5451H149.875V74.4661H103.247V65.7359ZM164.132 55.8607H101.947V63.5966H164.132V55.8607ZM97.3751 123.209V125.582H99.7125V127.955H80.8931V125.582H78.5481V123.209H76.1957V120.836H73.8433V118.464H71.4909V116.091H69.1384V113.718H66.2975V116.091H63.9451V118.464H61.5926V120.836H59.2402V123.209H56.8878V125.582H54.5354V127.955H35.716V125.582H38.0684V123.209H40.4208V120.836H42.7732V118.464H45.1257V116.091H47.4781V113.718H49.8305V111.345H52.1829V108.973H54.5354V106.6H56.8878V104.227H59.4882V99.474H75.9552V104.227H78.5557V106.6H80.9081V108.973H83.2605V111.345H85.6129V113.718H87.9654V116.091H90.3178V118.464H92.6702V120.836H95.0227V123.209H97.3751ZM168.03 123.548H163.859V101.252H148.632V163.087H163.859V139.638H168.03V123.548ZM104.883 163.011V111.165H104.876V105.357H144.349V116.972H144.289V163.011H104.883ZM120.328 151.396H128.851V116.972H120.328V151.396ZM74.9327 124.663H60.495V130.651H35.7158V141.197H99.7198V130.651H74.9327V124.663ZM52.0628 142.982H36.4826V163.011L52.0628 163.011L83.3652 163.011H98.9454V142.982H83.3652V145.92H52.0628V142.982ZM83.3652 153.038V155.893H52.0628V153.038H83.3652ZM218.627 101.252H233.854V163.087H218.627V101.252ZM173.299 111.165V116.972V151.388V163.011H188.518H214.402V151.388H188.518V116.972H214.402V105.349H173.299V111.165Z" fill="black"/>
<path fill-rule="evenodd" clip-rule="evenodd" d="M218.448 31.7941H232.563V93.8775H218.448V31.7941ZM205.107 78.127V80.2211H179.501V78.127H177.171V75.7919H174.842V73.4568H172.512V71.1293H170.212V43.0328H172.519V40.6977H174.849V38.3701H177.171V36.035H179.494V33.7H205.1V36.035H207.43V38.3701H209.76V40.6977H212.09V43.0253H214.232V71.1217H212.082V73.4568H209.752V75.7919H207.422V78.127H205.107ZM83.683 79.2869V77.6524H86.2759V75.3851H88.5983V73.05H90.9281V70.7149H93.258V68.3873H95.5804V42.867H93.258V40.5394H90.9281V38.2043H88.5983V35.8692H86.2684V33.5417H83.683V31.8996H50.4108V33.5417H47.8103V35.8692H45.4955V38.2043H43.1656V40.5319H40.8357V42.867H38.5059V68.3873H40.8357V70.7149H43.1581V73.05H45.488V75.3775H47.8179V77.6524H50.4108V79.2869H59.0313V82.187H38.5059V93.8022H95.5804V82.187H75.0624V79.2869H83.683ZM213.152 83.8499V93.7499H171.352V83.8499H213.152ZM162.832 41.9179H118.609V31.8996H103.247V41.9179V43.5374V53.5331H162.832V41.9179ZM103.247 65.7359H149.875H162.832V76.5451V79.8293V83.1135H116.204V85.1398H162.832V93.87H116.204H103.247V77.9612V76.5451H149.875V74.4661H103.247V65.7359ZM164.132 55.8607H101.947V63.5966H164.132V55.8607ZM97.3751 123.209V125.582H99.7125V127.955H80.8931V125.582H78.5481V123.209H76.1957V120.836H73.8433V118.464H71.4909V116.091H69.1384V113.718H66.2975V116.091H63.9451V118.464H61.5926V120.836H59.2402V123.209H56.8878V125.582H54.5354V127.955H35.716V125.582H38.0684V123.209H40.4208V120.836H42.7732V118.464H45.1257V116.091H47.4781V113.718H49.8305V111.345H52.1829V108.973H54.5354V106.6H56.8878V104.227H59.4882V99.474H75.9552V104.227H78.5557V106.6H80.9081V108.973H83.2605V111.345H85.6129V113.718H87.9654V116.091H90.3178V118.464H92.6702V120.836H95.0227V123.209H97.3751ZM168.03 123.548H163.859V101.252H148.632V163.087H163.859V139.638H168.03V123.548ZM104.883 163.011V111.165H104.876V105.357H144.349V116.972H144.289V163.011H104.883ZM120.328 151.396H128.851V116.972H120.328V151.396ZM74.9327 124.663H60.495V130.651H35.7158V141.197H99.7198V130.651H74.9327V124.663ZM52.0628 142.982H36.4826V163.011L52.0628 163.011L83.3652 163.011H98.9454V142.982H83.3652V145.92H52.0628V142.982ZM83.3652 153.038V155.893H52.0628V153.038H83.3652ZM218.627 101.252H233.854V163.087H218.627V101.252ZM173.299 111.165V116.972V151.388V163.011H188.518H214.402V151.388H188.518V116.972H214.402V105.349H173.299V111.165Z" fill="url(#paint0_linear_3303_13217)" fill-opacity="0.3"/>
<path d="M67.0181 63.0692H67.0782C67.3638 66.4815 70.2123 69.1556 73.6846 69.1556C77.3523 69.1556 80.321 66.1802 80.321 62.5043C80.321 58.8284 77.3523 55.853 73.6846 55.853C77.3523 55.853 80.321 52.8777 80.321 49.2018C80.321 45.5259 77.3523 42.5505 73.6846 42.5505C70.0169 42.5505 67.0482 45.5259 67.0482 49.2018C67.0482 45.5259 64.0795 42.5505 60.4118 42.5505C56.7441 42.5505 53.7754 45.5259 53.7754 49.2018C53.7754 52.6818 56.451 55.5367 59.8481 55.8229V55.8832C56.4435 56.1694 53.7754 59.0243 53.7754 62.5043C53.7754 66.1802 56.7441 69.1556 60.4118 69.1556C63.8841 69.1556 66.7325 66.474 67.0181 63.0692Z" fill="#16BF81"/>
<path d="M67.0333 59.3482H67.0634C67.1986 60.9979 68.574 62.2935 70.2575 62.2935C72.0313 62.2935 73.4668 60.8548 73.4668 59.0771C73.4668 57.2994 72.0313 55.8607 70.2575 55.8607C72.0313 55.8607 73.4668 54.4219 73.4668 52.6443C73.4668 50.8666 72.0313 49.4279 70.2575 49.4279C68.4838 49.4279 67.0483 50.8666 67.0483 52.6443C67.0483 50.8666 65.6128 49.4279 63.8391 49.4279C62.0654 49.4279 60.6299 50.8666 60.6299 52.6443C60.6299 54.324 61.9226 55.7025 63.5685 55.8456V55.8757C61.9226 56.0113 60.6299 57.3898 60.6299 59.0771C60.6299 60.8548 62.0654 62.2935 63.8391 62.2935C65.5151 62.2935 66.8905 60.9979 67.0333 59.3482Z" fill="#136D4C"/>
<path d="M187.624 61.5298L187.657 61.5637C185.676 63.9161 185.784 67.4346 187.996 69.6514C190.329 71.9903 194.11 71.9903 196.437 69.6514C198.771 67.3125 198.771 63.5229 196.437 61.1908C198.771 63.5297 202.552 63.5297 204.879 61.1908C207.206 58.852 207.213 55.0623 204.879 52.7302C202.545 50.3982 198.764 50.3914 196.437 52.7302C198.771 50.3914 198.771 46.6018 196.437 44.2697C194.104 41.9376 190.322 41.9308 187.996 44.2697C185.784 46.4865 185.676 50.005 187.657 52.3574L187.624 52.3913C185.276 50.4049 181.766 50.5134 179.554 52.7302C177.22 55.0691 177.22 58.8587 179.554 61.1908C181.766 63.4077 185.276 63.5161 187.624 61.5298Z" fill="#FFC234"/>
<path d="M189.998 59.1705L190.018 59.1909C189.058 60.3298 189.112 62.0314 190.181 63.1025C191.31 64.2347 193.137 64.2347 194.26 63.1025C195.382 61.9704 195.389 60.14 194.26 59.0146C195.389 60.1467 197.216 60.1467 198.338 59.0146C199.461 57.8825 199.468 56.052 198.338 54.9267C197.209 53.8013 195.382 53.7945 194.26 54.9267C195.389 53.7945 195.389 51.9641 194.26 50.8388C193.13 49.7134 191.304 49.7066 190.181 50.8388C189.112 51.9099 189.058 53.6115 190.018 54.7504L189.998 54.7708C188.862 53.8081 187.164 53.8623 186.095 54.9335C184.966 56.0656 184.966 57.896 186.095 59.0214C187.164 60.0925 188.862 60.1467 189.998 59.1841V59.1705Z" fill="#B57B1D"/>
</g>
<defs>
<linearGradient id="paint0_linear_3303_13217" x1="134.785" y1="31.7941" x2="134.785" y2="163.087" gradientUnits="userSpaceOnUse">
<stop stop-color="#C8E0FF" stop-opacity="0"/>
<stop offset="1" stop-color="#C8E0FF"/>
</linearGradient>
<clipPath id="clip0_3303_13217">
<rect width="269" height="208" fill="white"/>
</clipPath>
</defs>
</svg>
