<svg width="32" height="32" viewBox="0 0 32 32" fill="none" xmlns="http://www.w3.org/2000/svg">
<path d="M15.9998 13.0002V17.0002M15.9998 21.0002H16.0098M14.6151 7.89195L6.39019 22.0986C5.93398 22.8866 5.70588 23.2806 5.73959 23.6039C5.769 23.886 5.91677 24.1423 6.14613 24.309C6.40908 24.5002 6.86435 24.5002 7.77487 24.5002H24.2246C25.1352 24.5002 25.5904 24.5002 25.8534 24.309C26.0827 24.1423 26.2305 23.886 26.2599 23.6039C26.2936 23.2806 26.0655 22.8866 25.6093 22.0986L17.3844 7.89195C16.9299 7.10679 16.7026 6.71421 16.4061 6.58235C16.1474 6.46734 15.8521 6.46734 15.5935 6.58235C15.2969 6.71421 15.0696 7.10679 14.6151 7.89195Z" stroke="#17181C" stroke-width="1.5" stroke-linecap="round" stroke-linejoin="round"/>
</svg>
